<svg xmlns="http://www.w3.org/2000/svg" viewBox="0 0 1200 1000">
  <defs>
    <linearGradient id="bg" x1="0" x2="1" y1="0" y2="1">
      <stop offset="0" stop-color="#fff2df"/>
      <stop offset="1" stop-color="#f4c69c"/>
    </linearGradient>
    <filter id="shadow" x="-20%" y="-20%" width="140%" height="140%">
      <feDropShadow dx="0" dy="24" stdDeviation="24" flood-color="#2d2424" flood-opacity=".16"/>
    </filter>
  </defs>
  <rect width="1200" height="1000" fill="url(#bg)"/>
  <circle cx="1010" cy="185" r="170" fill="#25d366" opacity=".12"/>
  <circle cx="170" cy="810" r="210" fill="#e8741e" opacity=".13"/>
  <g filter="url(#shadow)">
    <ellipse cx="600" cy="725" rx="405" ry="92" fill="#fff8f0"/>
    <ellipse cx="600" cy="700" rx="345" ry="62" fill="#fff"/>
    <g transform="translate(360 310)">
      <rect x="0" y="260" width="480" height="210" rx="42" fill="#8f4b2f"/>
      <rect x="0" y="218" width="480" height="95" rx="42" fill="#f3d2a5"/>
      <rect x="0" y="170" width="480" height="92" rx="40" fill="#e8741e"/>
      <path d="M25 240h430" stroke="#fff8f0" stroke-width="16" stroke-linecap="round" opacity=".72"/>
      <path d="M45 340h390" stroke="#fff8f0" stroke-width="14" stroke-linecap="round" opacity=".56"/>
      <circle cx="120" cy="152" r="28" fill="#c9382d"/>
      <circle cx="240" cy="138" r="30" fill="#c9382d"/>
      <circle cx="360" cy="152" r="28" fill="#c9382d"/>
      <path d="M120 132c28-48 68-60 120-38 46-20 88-12 120 38" fill="none" stroke="#2d2424" stroke-width="8" stroke-linecap="round" opacity=".22"/>
    </g>
  </g>
</svg>
